<?xml version="1.0" encoding="UTF-8" standalone="no"?>
<!DOCTYPE svg PUBLIC "-//W3C//DTD SVG 1.1//EN" "http://www.w3.org/Graphics/SVG/1.1/DTD/svg11.dtd">
<svg width="100%" height="100%" viewBox="0 0 3150 651" version="1.1" xmlns="http://www.w3.org/2000/svg" xmlns:xlink="http://www.w3.org/1999/xlink" xml:space="preserve" xmlns:serif="http://www.serif.com/" style="fill-rule:evenodd;clip-rule:evenodd;stroke-linejoin:round;stroke-miterlimit:2;">
    <g transform="matrix(1,0,0,1,-6816,-424.732006)">
        <g transform="matrix(1,0,0,1,-0.687241,0)">
            <g transform="matrix(0.470122,0,0,0.470122,3555.140943,336.659293)">
                <path d="M7381.818,248.906C7472.7,248.906 7551.612,264.053 7618.552,294.347C7685.493,324.641 7737.042,367.64 7773.199,423.342C7809.357,479.044 7827.436,545.007 7827.436,621.231C7827.436,696.478 7809.357,762.197 7773.199,818.388C7737.042,874.579 7685.493,917.577 7618.552,947.383C7551.612,977.188 7472.7,992.091 7381.818,992.091L7175.133,992.091L7175.133,1275L6937.665,1275L6937.665,248.906L7381.818,248.906ZM7368.625,798.599C7439.963,798.599 7494.199,783.208 7531.334,752.425C7568.469,721.642 7587.036,677.911 7587.036,621.231C7587.036,563.575 7568.469,519.355 7531.334,488.572C7494.199,457.789 7439.963,442.398 7368.625,442.398L7175.133,442.398L7175.133,798.599L7368.625,798.599Z" style="fill:url(#_Linear1);fill-rule:nonzero;"/>
                <path d="M8353.675,1286.727C8270.61,1286.727 8196.097,1269.381 8130.133,1234.689C8064.17,1199.997 8012.621,1151.869 7975.486,1090.303C7938.351,1028.737 7919.784,958.865 7919.784,880.687C7919.784,802.508 7938.351,732.636 7975.486,671.07C8012.621,609.505 8064.17,561.376 8130.133,526.684C8196.097,491.993 8270.61,474.647 8353.675,474.647C8436.74,474.647 8511.01,491.993 8576.484,526.684C8641.959,561.376 8693.264,609.505 8730.398,671.07C8767.533,732.636 8786.101,802.508 8786.101,880.687C8786.101,958.865 8767.533,1028.737 8730.398,1090.303C8693.264,1151.869 8641.959,1199.997 8576.484,1234.689C8511.01,1269.381 8436.74,1286.727 8353.675,1286.727ZM8353.675,1099.098C8412.309,1099.098 8460.438,1079.309 8498.061,1039.731C8535.685,1000.153 8554.497,947.139 8554.497,880.687C8554.497,814.235 8535.685,761.22 8498.061,721.642C8460.438,682.064 8412.309,662.275 8353.675,662.275C8295.041,662.275 8246.668,682.064 8208.556,721.642C8170.444,761.22 8151.388,814.235 8151.388,880.687C8151.388,947.139 8170.444,1000.153 8208.556,1039.731C8246.668,1079.309 8295.041,1099.098 8353.675,1099.098Z" style="fill:url(#_Linear2);fill-rule:nonzero;"/>
                <rect x="8938.549" y="187.34" width="228.672" height="1087.66" style="fill:url(#_Linear3);fill-rule:nonzero;"/>
                <path d="M10162.533,486.373L9806.331,1323.373C9770.174,1414.256 9725.465,1478.264 9672.206,1515.399C9618.947,1552.534 9554.694,1571.101 9479.447,1571.101C9438.403,1571.101 9397.848,1564.749 9357.782,1552.045C9317.715,1539.341 9284.978,1521.751 9259.57,1499.275L9343.123,1336.566C9360.713,1352.201 9380.991,1364.417 9403.956,1373.212C9426.921,1382.007 9449.641,1386.404 9472.118,1386.404C9503.389,1386.404 9528.797,1378.831 9548.342,1363.684C9567.887,1348.537 9585.477,1323.373 9601.112,1288.193L9604.044,1280.863L9262.501,486.373L9498.503,486.373L9719.846,1021.408L9942.655,486.373L10162.533,486.373Z" style="fill:url(#_Linear4);fill-rule:nonzero;"/>
            </g>
        </g>
        <g transform="matrix(1,0,0,1,-0.687241,0)">
            <g transform="matrix(0.510668,0,0,0.510668,4846.449486,352.856747)">
                <path d="M7228.959,1281.748C7159.683,1281.748 7093.78,1269.827 7031.252,1245.985C6968.723,1222.143 6919.915,1191.328 6884.827,1153.541L6915.866,1102.259C6949.155,1137.347 6993.914,1165.912 7050.145,1187.955C7106.376,1209.997 7165.531,1221.018 7227.61,1221.018C7317.579,1221.018 7385.506,1203.924 7431.391,1169.736C7477.275,1135.547 7500.217,1091.013 7500.217,1036.131C7500.217,993.846 7488.071,960.107 7463.78,934.916C7439.488,909.724 7409.348,890.381 7373.36,876.886C7337.373,863.39 7288.789,849.445 7227.61,835.05C7158.333,817.956 7102.777,801.311 7060.942,785.117C7019.106,768.922 6983.568,743.956 6954.328,710.217C6925.088,676.479 6910.468,631.269 6910.468,574.588C6910.468,528.704 6922.614,486.643 6946.905,448.406C6971.197,410.169 7008.31,379.805 7058.243,357.312C7108.176,334.82 7170.479,323.574 7245.154,323.574C7297.336,323.574 7348.619,331.221 7399.002,346.516C7449.384,361.811 7493.02,382.504 7529.907,408.595L7504.266,463.926C7466.479,437.835 7424.868,418.042 7379.433,404.546C7333.999,391.051 7289.239,384.303 7245.154,384.303C7157.884,384.303 7091.756,401.847 7046.771,436.935C7001.787,472.023 6979.294,517.458 6979.294,573.239C6979.294,615.524 6991.44,649.263 7015.732,674.454C7040.024,699.646 7070.163,718.989 7106.151,732.485C7142.139,745.98 7191.172,760.375 7253.251,775.67C7322.528,792.764 7377.859,809.408 7419.245,825.603C7460.631,841.797 7495.944,866.314 7525.184,899.153C7554.424,931.992 7569.044,976.302 7569.044,1032.083C7569.044,1077.967 7556.673,1119.803 7531.931,1157.59C7507.19,1195.377 7469.178,1225.517 7417.895,1248.009C7366.613,1270.502 7303.634,1281.748 7228.959,1281.748Z" style="fill:rgb(55,152,97);fill-rule:nonzero;"/>
                <path d="M8376.069,938.964L7770.125,938.964C7771.925,993.846 7785.87,1042.654 7811.961,1085.39C7838.052,1128.125 7873.365,1161.189 7917.9,1184.581C7962.435,1207.973 8012.593,1219.669 8068.374,1219.669C8114.258,1219.669 8156.769,1211.347 8195.905,1194.702C8235.042,1178.058 8267.656,1153.541 8293.747,1121.152L8332.884,1165.687C8302.294,1202.575 8263.832,1230.915 8217.498,1250.708C8171.164,1270.502 8121.006,1280.398 8067.024,1280.398C7996.848,1280.398 7934.319,1265.103 7879.438,1234.514C7824.557,1203.924 7781.596,1161.639 7750.557,1107.657C7719.517,1053.675 7703.998,992.046 7703.998,922.77C7703.998,854.393 7718.618,792.989 7747.858,738.558C7777.098,684.126 7817.359,641.616 7868.642,611.026C7919.924,580.436 7977.505,565.142 8041.383,565.142C8105.261,565.142 8162.617,580.211 8213.449,610.351C8264.282,640.491 8304.318,682.552 8333.558,736.533C8362.799,790.515 8377.419,851.694 8377.419,920.071L8376.069,938.964ZM8041.383,624.521C7991.9,624.521 7947.365,635.543 7907.778,657.585C7868.192,679.628 7836.478,710.667 7812.636,750.703C7788.794,790.74 7775.074,835.949 7771.475,886.332L8311.291,886.332C8308.592,835.949 8295.097,790.965 8270.805,751.378C8246.513,711.792 8214.574,680.752 8174.987,658.26C8135.401,635.768 8090.866,624.521 8041.383,624.521Z" style="fill:rgb(55,152,97);fill-rule:nonzero;"/>
                <path d="M9181.745,938.964L8575.801,938.964C8577.6,993.846 8591.546,1042.654 8617.637,1085.39C8643.728,1128.125 8679.041,1161.189 8723.576,1184.581C8768.111,1207.973 8818.268,1219.669 8874.05,1219.669C8919.934,1219.669 8962.444,1211.347 9001.581,1194.702C9040.718,1178.058 9073.332,1153.541 9099.423,1121.152L9138.559,1165.687C9107.97,1202.575 9069.508,1230.915 9023.174,1250.708C8976.84,1270.502 8926.682,1280.398 8872.7,1280.398C8802.524,1280.398 8739.995,1265.103 8685.114,1234.514C8630.232,1203.924 8587.272,1161.639 8556.233,1107.657C8525.193,1053.675 8509.674,992.046 8509.674,922.77C8509.674,854.393 8524.294,792.989 8553.534,738.558C8582.774,684.126 8623.035,641.616 8674.317,611.026C8725.6,580.436 8783.18,565.142 8847.059,565.142C8910.937,565.142 8968.292,580.211 9019.125,610.351C9069.958,640.491 9109.994,682.552 9139.234,736.533C9168.474,790.515 9183.094,851.694 9183.094,920.071L9181.745,938.964ZM8847.059,624.521C8797.576,624.521 8753.041,635.543 8713.454,657.585C8673.868,679.628 8642.153,710.667 8618.312,750.703C8594.47,790.74 8580.749,835.949 8577.151,886.332L9116.967,886.332C9114.268,835.949 9100.772,790.965 9076.481,751.378C9052.189,711.792 9020.25,680.752 8980.663,658.26C8941.077,635.768 8896.542,624.521 8847.059,624.521Z" style="fill:rgb(55,152,97);fill-rule:nonzero;"/>
                <path d="M9643.288,898.478L9459.75,1065.821L9459.75,1275L9392.273,1275L9392.273,273.641L9459.75,273.641L9459.75,982.15L9910.497,570.54L9996.867,570.54L9693.221,855.293L10026.557,1275L9942.886,1275L9643.288,898.478Z" style="fill:rgb(55,152,97);fill-rule:nonzero;"/>
            </g>
        </g>
    </g>
    <defs>
        <linearGradient id="_Linear1" x1="0" y1="0" x2="1" y2="0" gradientUnits="userSpaceOnUse" gradientTransform="matrix(0,-1383.761145,1383.761145,0,8583.816187,1571.101431)"><stop offset="0" style="stop-color:rgb(14,116,123);stop-opacity:1"/><stop offset="1" style="stop-color:rgb(100,213,71);stop-opacity:1"/></linearGradient>
        <linearGradient id="_Linear2" x1="0" y1="0" x2="1" y2="0" gradientUnits="userSpaceOnUse" gradientTransform="matrix(0,-1383.761145,1383.761145,0,8583.816187,1571.101431)"><stop offset="0" style="stop-color:rgb(14,116,123);stop-opacity:1"/><stop offset="1" style="stop-color:rgb(100,213,71);stop-opacity:1"/></linearGradient>
        <linearGradient id="_Linear3" x1="0" y1="0" x2="1" y2="0" gradientUnits="userSpaceOnUse" gradientTransform="matrix(0,-1383.761145,1383.761145,0,8583.816187,1571.101431)"><stop offset="0" style="stop-color:rgb(14,116,123);stop-opacity:1"/><stop offset="1" style="stop-color:rgb(100,213,71);stop-opacity:1"/></linearGradient>
        <linearGradient id="_Linear4" x1="0" y1="0" x2="1" y2="0" gradientUnits="userSpaceOnUse" gradientTransform="matrix(0,-1383.761145,1383.761145,0,8583.816187,1571.101431)"><stop offset="0" style="stop-color:rgb(14,116,123);stop-opacity:1"/><stop offset="1" style="stop-color:rgb(100,213,71);stop-opacity:1"/></linearGradient>
    </defs>
</svg>
